<svg xmlns="http://www.w3.org/2000/svg" xmlns:xlink="http://www.w3.org/1999/xlink" width="383" height="383" version="1.1" viewBox="0 0 383 383"><title>Coinbase Wallet SDK</title><desc>Created with Sketch.</desc><defs><rect id="path-1" width="383" height="383" x="0" y="0" rx="64"/><linearGradient id="linearGradient-3" x1="50%" x2="50%" y1="0%" y2="100%"><stop offset="0%" stop-color="#2E66F8"/><stop offset="100%" stop-color="#124ADB"/></linearGradient></defs><g id="Page-1" fill="none" fill-rule="evenodd" stroke="none" stroke-width="1"><g id="coinbasewallet"><g id="Path"><mask id="mask-2" fill="#fff"><use xlink:href="#path-1"/></mask><rect width="382" height="382" x=".5" y=".5" stroke="#979797" rx="64"/><polygon fill="url(#linearGradient-3)" fill-rule="nonzero" points="0 0 383 0 383 384 0 384" mask="url(#mask-2)"/></g><path id="Shape" fill="#FFF" d="M60.1074,191.572 C60.1074,264.966 119.605,324.463 192.998,324.463 C266.392,324.463 325.889,264.966 325.889,191.572 C325.889,118.179 266.392,58.6816 192.998,58.6816 C119.605,58.6816 60.1074,118.179 60.1074,191.572 Z M159.037,148.752 C154.144,148.752 150.178,152.718 150.178,157.611 L150.178,225.533 C150.178,230.426 154.144,234.393 159.037,234.393 L226.959,234.393 C231.852,234.393 235.818,230.426 235.818,225.533 L235.818,157.611 C235.818,152.718 231.852,148.752 226.959,148.752 L159.037,148.752 Z"/></g></g></svg>